<?xml version="1.0" standalone="no"?>
<!DOCTYPE svg PUBLIC "-//W3C//DTD SVG 20010904//EN"
 "http://www.w3.org/TR/2001/REC-SVG-20010904/DTD/svg10.dtd">
<svg version="1.0" xmlns="http://www.w3.org/2000/svg"
 width="500.000000pt" height="500.000000pt" viewBox="0 0 500.000000 500.000000"
 preserveAspectRatio="xMidYMid meet">
<metadata>
Created by potrace 1.11, written by Peter Selinger 2001-2013
</metadata>
<g transform="translate(0.000000,500.000000) scale(0.100000,-0.100000)"
fill="#000000" stroke="none">
<path d="M0 2500 l0 -2500 2500 0 2500 0 0 2500 0 2500 -2500 0 -2500 0 0
-2500z m3935 1479 c104 -39 198 -133 232 -234 20 -61 22 -185 4 -240 -36 -108
-136 -207 -247 -246 -84 -29 -197 -24 -277 13 -80 38 -158 114 -193 191 -26
54 -29 73 -29 157 0 86 3 101 31 160 47 99 139 179 244 211 53 16 177 10 235
-12z m-2385 -594 l0 -605 485 0 485 0 0 605 0 605 345 0 345 0 0 -1515 0
-1515 -345 0 -345 0 0 610 0 610 -485 0 -485 0 0 -610 0 -610 -345 0 -345 0 0
1515 0 1515 345 0 345 0 0 -605z m2570 -1485 l0 -940 -325 0 -325 0 0 940 0
940 325 0 325 0 0 -940z"/>
</g>
</svg>
